<svg width="288" height="64" viewBox="0 0 288 64" fill="none"
    xmlns="http://www.w3.org/2000/svg">
    <path d="M92.0538 53.4419C91.7594 53.4419 91.4969 53.4093 91.2662 53.3399C91.0356 53.2746 90.8367 53.1644 90.6776 53.0175C90.5145 52.8706 90.3912 52.6787 90.3077 52.442C90.2202 52.2053 90.1804 51.9196 90.1804 51.5808C90.1804 51.3237 90.1804 51.0421 90.1844 50.7278C90.1844 50.4135 90.1883 50.087 90.1883 49.7483C90.1883 49.4095 90.1844 49.0667 90.1804 48.7197C90.1764 48.3728 90.1685 48.0341 90.1605 47.7035C90.1486 47.3729 90.1366 47.0627 90.1168 46.7688C90.0969 46.475 90.073 46.2137 90.0452 45.9811L90.8009 45.8383C90.8287 46.0219 90.8526 46.2382 90.8725 46.4831C90.8924 46.7321 90.9083 46.9974 90.9202 47.2831C90.9321 47.5688 90.9401 47.8667 90.948 48.1769C90.952 48.4871 90.956 48.7891 90.956 49.0871C90.956 49.5115 90.956 49.9197 90.96 50.3115C90.96 50.4421 90.96 50.5768 90.96 50.7115C90.96 50.9727 90.96 51.238 90.956 51.4992C90.956 51.7237 90.9719 51.9073 91.0077 52.0543C91.0395 52.2012 91.0992 52.3155 91.1827 52.4053C91.2662 52.491 91.3736 52.5563 91.5089 52.5889C91.6441 52.6257 91.8151 52.642 92.022 52.642H92.1612V53.4501H92.0538V53.4419Z" fill="#717171"/>
    <path d="M100.509 52.6337V53.4418H91.9534V52.6337H100.509Z" fill="#717171"/>
    <path d="M100.319 52.634H101.218C101.413 52.634 101.608 52.6258 101.802 52.6136C101.997 52.6013 102.184 52.5687 102.355 52.5238C102.526 52.4789 102.681 52.4095 102.821 52.3238C102.956 52.2381 103.067 52.1197 103.147 51.9728C103.195 51.8871 103.222 51.7769 103.23 51.6463C103.234 51.6136 103.234 51.581 103.234 51.5483C103.234 51.4463 103.226 51.3238 103.206 51.1892C103.187 51.0545 103.155 50.8994 103.111 50.728C103.067 50.5565 103.016 50.3851 102.964 50.2137C102.908 50.0423 102.852 49.8749 102.793 49.7158C102.733 49.5566 102.681 49.4056 102.63 49.2709L103.31 48.9036C103.37 49.0627 103.437 49.2342 103.505 49.4178C103.572 49.6015 103.64 49.7933 103.7 49.9892C103.759 50.1851 103.815 50.3851 103.863 50.5933C103.91 50.7973 103.946 50.9973 103.966 51.1973C103.974 51.3034 103.982 51.4096 103.982 51.5116C103.982 51.5973 103.978 51.7075 103.966 51.8463C103.954 51.981 103.914 52.132 103.847 52.2952C103.755 52.5156 103.628 52.6993 103.473 52.8503C103.318 53.0013 103.135 53.1156 102.928 53.2054C102.721 53.2952 102.491 53.3564 102.236 53.3931C101.981 53.4299 101.711 53.4462 101.429 53.4462H100.323V52.634H100.319ZM102.049 55.2379L101.345 55.993L100.629 55.2338L101.333 54.4747L102.049 55.2379ZM103.763 55.2461L103.063 56.0012L102.347 55.2338L103.051 54.4788L103.763 55.2461Z" fill="#717171"/>
    <path d="M106.794 50.3118C106.846 50.4913 106.905 50.6913 106.969 50.9199C107.037 51.1444 107.096 51.3811 107.156 51.6219C107.216 51.8627 107.263 52.1117 107.303 52.3606C107.343 52.6096 107.363 52.8504 107.363 53.079C107.363 53.3647 107.323 53.6463 107.244 53.9157C107.164 54.1891 107.057 54.4503 106.917 54.6993C106.778 54.9483 106.615 55.1891 106.424 55.4176C106.233 55.6462 106.022 55.8625 105.8 56.0666C105.573 56.2706 105.334 56.4584 105.084 56.6339C104.829 56.8053 104.575 56.9645 104.312 57.1073L103.978 56.3849C104.316 56.2013 104.642 55.9849 104.96 55.7482C105.275 55.5074 105.557 55.2462 105.8 54.9687C106.046 54.687 106.241 54.3891 106.388 54.0708C106.536 53.7524 106.611 53.4259 106.611 53.083C106.611 52.8953 106.595 52.6994 106.559 52.4872C106.524 52.279 106.48 52.0627 106.424 51.8423C106.368 51.626 106.309 51.4056 106.245 51.1893C106.182 50.973 106.118 50.7607 106.062 50.5566L106.794 50.3118Z" fill="#717171"/>
    <path d="M107.39 45.5403C107.426 45.3975 107.482 45.2628 107.557 45.1322C107.633 45.0016 107.724 44.8832 107.828 44.7853C107.931 44.6832 108.042 44.6057 108.166 44.5445C108.289 44.4832 108.412 44.4547 108.536 44.4547C108.671 44.4547 108.794 44.471 108.91 44.5077C109.025 44.5445 109.128 44.5853 109.22 44.6302C109.307 44.6669 109.399 44.7036 109.49 44.7322C109.582 44.7608 109.677 44.7771 109.777 44.7812C109.789 44.7812 109.8 44.7812 109.808 44.7812C109.868 44.7812 109.932 44.7649 109.999 44.7322C110.067 44.6996 110.131 44.6587 110.194 44.6057C110.258 44.5526 110.314 44.4996 110.361 44.4465C110.409 44.3894 110.449 44.3445 110.477 44.3077C110.556 44.3649 110.636 44.4179 110.715 44.4751C110.795 44.5322 110.87 44.5853 110.95 44.6383C110.93 44.6669 110.89 44.7281 110.827 44.8138C110.763 44.8996 110.679 44.9853 110.576 45.075C110.473 45.1608 110.349 45.2424 110.21 45.3118C110.083 45.373 109.948 45.4056 109.796 45.4056C109.785 45.4056 109.769 45.4056 109.753 45.4056C109.61 45.4056 109.482 45.3852 109.363 45.3485C109.244 45.3118 109.132 45.2669 109.029 45.222C108.921 45.1771 108.822 45.1404 108.723 45.1077C108.659 45.0873 108.595 45.0791 108.528 45.0791C108.492 45.0791 108.456 45.0832 108.42 45.0873C108.361 45.0995 108.309 45.1281 108.257 45.1771C108.206 45.2261 108.158 45.2832 108.118 45.3444C108.074 45.4056 108.042 45.475 108.011 45.5444C107.983 45.6179 107.959 45.675 107.939 45.7281L107.39 45.5403ZM109.546 46.177C109.645 47.43 109.709 48.6585 109.741 49.8707C109.745 50.1727 109.749 50.4748 109.749 50.7768C109.749 51.6788 109.721 52.5644 109.661 53.442C109.518 53.4338 109.391 53.4256 109.275 53.4134C109.16 53.4052 109.037 53.3971 108.902 53.3889C108.937 53.0583 108.961 52.6869 108.973 52.2828C108.985 51.8747 108.993 51.4543 108.993 51.0135C108.993 50.5768 108.985 50.1319 108.973 49.6871C108.961 49.2381 108.941 48.8096 108.921 48.3973C108.902 47.9851 108.878 47.5974 108.858 47.2341C108.834 46.875 108.814 46.5648 108.79 46.2995L109.546 46.177Z" fill="#717171"/>
    <path d="M115.941 57.001C115.46 56.9888 115.03 56.9112 114.648 56.7684C114.267 56.6255 113.94 56.4174 113.674 56.148C113.407 55.8786 113.201 55.5481 113.061 55.1562C112.918 54.7644 112.851 54.3155 112.851 53.8134C112.851 53.5482 112.87 53.2788 112.914 53.0053C112.958 52.7319 113.018 52.4625 113.089 52.2054C113.161 51.9442 113.244 51.7034 113.34 51.4707C113.435 51.2381 113.535 51.034 113.638 50.8503L114.259 51.336C114.199 51.434 114.135 51.5687 114.06 51.7442C113.984 51.9197 113.917 52.1197 113.853 52.3441C113.789 52.5686 113.734 52.8094 113.69 53.0666C113.646 53.3278 113.622 53.5849 113.622 53.842C113.622 54.0012 113.634 54.1685 113.658 54.344C113.682 54.5195 113.726 54.691 113.789 54.8624C113.853 55.0338 113.94 55.193 114.052 55.3481C114.163 55.4991 114.306 55.6378 114.481 55.7603C114.656 55.8827 114.863 55.9807 115.106 56.0541C115.348 56.1276 115.635 56.1684 115.961 56.1807C116.005 56.1807 116.048 56.1807 116.092 56.1807C116.482 56.1807 116.84 56.1235 117.162 56.0093C117.484 55.895 117.763 55.7195 117.997 55.4868C118.232 55.2542 118.407 54.9726 118.526 54.6379C118.646 54.3032 118.709 53.9359 118.709 53.5278C118.709 53.2257 118.682 52.9319 118.626 52.6543C118.57 52.3727 118.503 52.1197 118.423 51.8829C118.343 51.6503 118.264 51.4421 118.18 51.2666C118.097 51.0911 118.029 50.9565 117.974 50.8626L118.646 50.4014C118.674 50.4504 118.717 50.5238 118.769 50.6259C118.821 50.7279 118.88 50.8503 118.94 50.9973C119 51.1442 119.063 51.3075 119.127 51.487C119.191 51.6707 119.25 51.8666 119.302 52.0829C119.354 52.2992 119.397 52.5237 119.429 52.7604C119.461 52.9972 119.481 53.2461 119.481 53.4992C119.481 54.0461 119.393 54.5359 119.218 54.9767C119.043 55.4174 118.801 55.7929 118.487 56.099C118.176 56.4052 117.802 56.6378 117.369 56.7929C116.987 56.9357 116.569 57.0051 116.128 57.0051C116.06 57.0051 116.001 57.0051 115.941 57.001ZM116.912 50.1932L116.2 50.9524L115.488 50.1932L116.2 49.4341L116.912 50.1932Z" fill="#717171"/>
    <path d="M122.31 53.4419C122.016 53.4419 121.753 53.4093 121.522 53.3399C121.292 53.2746 121.093 53.1644 120.934 53.0175C120.771 52.8706 120.647 52.6787 120.564 52.442C120.476 52.2053 120.437 51.9196 120.437 51.5808C120.437 51.3237 120.436 51.0421 120.44 50.7278C120.44 50.4135 120.444 50.087 120.444 49.7483C120.444 49.4095 120.44 49.0667 120.437 48.7197C120.433 48.3728 120.425 48.0341 120.417 47.7035C120.405 47.3729 120.393 47.0627 120.373 46.7688C120.353 46.475 120.329 46.2137 120.301 45.9811L121.057 45.8383C121.085 46.0219 121.109 46.2382 121.129 46.4831C121.148 46.7321 121.164 46.9974 121.176 47.2831C121.188 47.5688 121.196 47.8667 121.204 48.1769C121.208 48.4871 121.212 48.7891 121.212 49.0871C121.212 49.5115 121.212 49.9197 121.216 50.3115C121.216 50.4421 121.216 50.5768 121.216 50.7115C121.216 50.9727 121.216 51.238 121.212 51.4992C121.212 51.7237 121.228 51.9073 121.264 52.0543C121.296 52.2012 121.355 52.3155 121.439 52.4053C121.522 52.491 121.63 52.5563 121.765 52.5889C121.9 52.6257 122.071 52.642 122.278 52.642H122.417V53.4501H122.31V53.4419Z" fill="#717171"/>
    <path d="M128.383 52.6337V53.4418H122.214V52.6337H128.383Z" fill="#717171"/>
    <path d="M128.284 52.6341C128.566 52.6341 128.809 52.5851 129.007 52.4872C129.206 52.3892 129.377 52.2586 129.521 52.0954C129.668 51.9321 129.791 51.7484 129.898 51.5403C130.006 51.3321 130.113 51.1158 130.217 50.8954C130.3 50.7077 130.384 50.5322 130.463 50.3648C130.547 50.1975 130.638 50.0506 130.742 49.9159C131.016 49.5608 131.342 49.3812 131.724 49.3812C132.177 49.3812 132.559 49.5771 132.866 49.973C132.985 50.1281 133.08 50.3077 133.156 50.5159C133.231 50.7199 133.283 50.9362 133.311 51.1607C133.327 51.2995 133.335 51.4342 133.335 51.5689C133.335 51.6587 133.327 51.7852 133.315 51.9403C133.299 52.0994 133.259 52.2749 133.188 52.4627C133.1 52.6913 132.985 52.8831 132.838 53.0341C132.691 53.1892 132.527 53.2912 132.344 53.3402C132.233 53.3728 132.11 53.3892 131.979 53.3892C131.736 53.3892 131.473 53.328 131.183 53.2014C130.877 53.0708 130.535 52.8586 130.157 52.5647C130.05 52.7239 129.922 52.8586 129.779 52.9688C129.636 53.079 129.485 53.1688 129.322 53.2382C129.159 53.3075 128.992 53.3606 128.817 53.3892C128.641 53.4218 128.466 53.4382 128.287 53.4382H128.184V52.63H128.284V52.6341ZM130.594 51.8954C130.734 52.0056 130.873 52.1035 131.016 52.1892C131.159 52.2709 131.298 52.3443 131.43 52.4056C131.565 52.4627 131.688 52.5076 131.808 52.5402C131.927 52.5729 132.026 52.5851 132.11 52.5851C132.142 52.5851 132.173 52.5851 132.201 52.5811C132.229 52.577 132.261 52.5729 132.293 52.5606C132.388 52.528 132.468 52.4464 132.527 52.3198C132.587 52.1933 132.627 52.0464 132.647 51.8791C132.655 51.8015 132.663 51.7199 132.663 51.6342C132.663 51.5403 132.655 51.4219 132.635 51.2791C132.615 51.1322 132.567 50.9811 132.496 50.8179C132.42 50.6587 132.321 50.5199 132.193 50.4057C132.066 50.2914 131.911 50.2261 131.728 50.2098C131.716 50.2098 131.704 50.2098 131.692 50.2098C131.625 50.2098 131.561 50.2302 131.501 50.2669C131.442 50.3036 131.382 50.3689 131.318 50.4546C131.255 50.5444 131.191 50.6546 131.123 50.7893C131.056 50.924 130.98 51.0791 130.897 51.2587L130.594 51.8954Z" fill="#717171"/>
    <path d="M135.4 50.3116C135.452 50.4912 135.511 50.6912 135.575 50.9198C135.643 51.1443 135.702 51.381 135.762 51.6218C135.822 51.8626 135.869 52.1115 135.909 52.3605C135.949 52.6095 135.969 52.8503 135.969 53.0788C135.969 53.3645 135.929 53.6462 135.849 53.9155C135.77 54.189 135.663 54.4502 135.523 54.6992C135.384 54.9481 135.221 55.1889 135.03 55.4175C134.839 55.6461 134.628 55.8624 134.406 56.0664C134.179 56.2705 133.94 56.4583 133.69 56.6338C133.435 56.8052 133.181 56.9644 132.918 57.1072L132.584 56.3848C132.922 56.2011 133.248 55.9848 133.566 55.7481C133.881 55.5073 134.163 55.2461 134.406 54.9685C134.652 54.6869 134.847 54.389 134.994 54.0706C135.141 53.7523 135.217 53.4258 135.217 53.0829C135.217 52.8952 135.201 52.6993 135.165 52.487C135.13 52.2789 135.086 52.0626 135.03 51.8422C134.974 51.6259 134.915 51.4055 134.851 51.1891C134.787 50.9728 134.724 50.7606 134.668 50.5565L135.4 50.3116Z" fill="#717171"/>
    <path d="M138.948 53.434C138.801 53.434 138.63 53.4177 138.435 53.3851C138.236 53.3483 138.041 53.3034 137.846 53.2463C137.652 53.1892 137.473 53.1239 137.306 53.0545C137.138 52.981 137.015 52.9116 136.932 52.8382L137.254 52.0464C137.369 52.1198 137.5 52.1892 137.652 52.2545C137.799 52.3198 137.958 52.3769 138.121 52.4259C138.284 52.4749 138.455 52.5157 138.626 52.5484C138.801 52.5769 138.972 52.5933 139.139 52.5933C139.258 52.5933 139.374 52.5851 139.489 52.5688C139.604 52.5525 139.712 52.528 139.819 52.4871C139.923 52.4504 140.022 52.3974 140.11 52.3361C140.201 52.2749 140.281 52.1974 140.348 52.1035C140.444 51.977 140.491 51.826 140.491 51.6545C140.491 51.626 140.483 51.5525 140.472 51.4341C140.46 51.3158 140.396 51.1403 140.289 50.9036C140.181 50.6709 140.042 50.4301 139.871 50.1893C139.7 49.9485 139.521 49.7199 139.33 49.5077C139.139 49.2955 138.952 49.1077 138.765 48.9445C138.578 48.7853 138.419 48.6629 138.288 48.5812L138.602 47.8262C138.781 47.9282 138.96 48.0547 139.139 48.2057C139.322 48.3568 139.501 48.5241 139.672 48.7077C139.847 48.8914 140.014 49.0873 140.173 49.2955C140.332 49.5036 140.476 49.7118 140.607 49.9281C140.734 50.1444 140.845 50.3607 140.941 50.5811C141.032 50.7974 141.104 51.0097 141.148 51.2137C141.172 51.328 141.188 51.4464 141.195 51.5729C141.199 51.6219 141.199 51.679 141.199 51.7321C141.199 51.8015 141.195 51.8831 141.184 51.977C141.172 52.0708 141.148 52.177 141.108 52.2912C141.064 52.4055 141.005 52.5116 140.929 52.6096C140.814 52.7606 140.678 52.883 140.531 52.9892C140.38 53.0953 140.221 53.1769 140.046 53.2422C139.875 53.3075 139.692 53.3565 139.505 53.3851C139.326 53.4218 139.135 53.434 138.948 53.434Z" fill="#717171"/>
    <path d="M145.633 50.3121C145.685 50.4917 145.745 50.6917 145.808 50.9203C145.876 51.1447 145.935 51.3815 145.995 51.6223C146.055 51.8631 146.103 52.112 146.142 52.361C146.182 52.61 146.202 52.8508 146.202 53.0793C146.202 53.365 146.162 53.6466 146.083 53.916C146.003 54.1895 145.896 54.4507 145.756 54.6997C145.617 54.9486 145.454 55.1894 145.263 55.418C145.072 55.6465 144.862 55.8628 144.639 56.0669C144.416 56.271 144.173 56.4587 143.923 56.6342C143.668 56.8057 143.414 56.9648 143.151 57.1077L142.817 56.3853C143.155 56.2016 143.481 55.9853 143.8 55.7486C144.114 55.5078 144.396 55.2466 144.639 54.969C144.885 54.6874 145.08 54.3895 145.227 54.0711C145.375 53.7528 145.45 53.4262 145.45 53.0834C145.45 52.8957 145.434 52.6998 145.398 52.4875C145.363 52.2794 145.319 52.0631 145.263 51.8427C145.208 51.6263 145.148 51.4059 145.084 51.1896C145.021 50.9733 144.957 50.7611 144.901 50.557L145.633 50.3121ZM145.928 48.051L145.216 48.8102L144.504 48.051L145.216 47.2919L145.928 48.051Z" fill="#717171"/>
    <path d="M147.141 56.2627C147.63 56.1484 148.072 55.9892 148.465 55.7852C148.859 55.5811 149.197 55.3525 149.48 55.0995C149.762 54.8464 149.985 54.5771 150.152 54.2873C150.319 54.0016 150.418 53.72 150.458 53.4384C150.351 53.4424 150.247 53.4424 150.144 53.4424C149.993 53.4424 149.818 53.4383 149.623 53.4302C149.428 53.422 149.221 53.3975 149.002 53.3567C148.784 53.32 148.589 53.2588 148.41 53.1812C148.231 53.1037 148.076 52.9976 147.948 52.8669C147.821 52.7323 147.722 52.569 147.65 52.3772C147.578 52.1854 147.543 51.9527 147.543 51.6833C147.547 51.5201 147.562 51.3446 147.598 51.1568C147.63 50.9732 147.682 50.7895 147.741 50.6099C147.805 50.4303 147.881 50.2589 147.972 50.0957C148.064 49.9324 148.167 49.7896 148.286 49.6671C148.406 49.5447 148.537 49.4467 148.684 49.3733C148.831 49.2998 148.99 49.2631 149.161 49.2631C149.4 49.2631 149.615 49.3202 149.81 49.4304C150.005 49.5406 150.176 49.6916 150.331 49.8794C150.482 50.0671 150.617 50.2834 150.729 50.5242C150.84 50.7691 150.935 51.0222 151.007 51.2834C151.083 51.5487 151.134 51.8139 151.17 52.0792C151.206 52.3445 151.222 52.5935 151.222 52.8261C151.222 53.218 151.174 53.5812 151.075 53.9281C150.975 54.275 150.84 54.5934 150.665 54.8873C150.49 55.1811 150.283 55.4505 150.04 55.6872C149.798 55.928 149.531 56.1402 149.241 56.3239C148.951 56.5076 148.644 56.6627 148.318 56.7851C147.992 56.9076 147.658 56.9973 147.316 57.0586L147.141 56.2627ZM149.157 50.0793C149.038 50.0793 148.919 50.1283 148.803 50.2344C148.688 50.3365 148.585 50.4712 148.493 50.6263C148.402 50.7813 148.326 50.9568 148.27 51.1446C148.215 51.3323 148.187 51.5078 148.187 51.6711C148.203 51.8384 148.255 51.9772 148.338 52.0915C148.422 52.2017 148.529 52.2915 148.656 52.3609C148.784 52.4302 148.931 52.4792 149.09 52.5119C149.249 52.5445 149.412 52.5649 149.579 52.5772C149.746 52.5894 149.909 52.5935 150.064 52.5935C150.223 52.5935 150.363 52.5935 150.49 52.5935C150.49 52.4384 150.478 52.267 150.45 52.0833C150.422 51.8997 150.382 51.7119 150.331 51.5282C150.279 51.3405 150.215 51.1609 150.136 50.9854C150.06 50.8099 149.969 50.6548 149.873 50.5201C149.774 50.3854 149.667 50.2793 149.547 50.1977C149.424 50.1202 149.293 50.0793 149.157 50.0793Z" fill="#717171"/>
    <path d="M153.855 50.3118C153.907 50.4913 153.966 50.6913 154.03 50.9199C154.093 51.1485 154.157 51.3811 154.217 51.6219C154.276 51.8627 154.324 52.1117 154.364 52.3606C154.404 52.6096 154.424 52.8504 154.424 53.079C154.424 53.3647 154.384 53.6463 154.304 53.9157C154.225 54.1891 154.117 54.4503 153.978 54.6993C153.839 54.9483 153.676 55.1891 153.485 55.4176C153.294 55.6462 153.083 55.8625 152.86 56.0666C152.638 56.2706 152.395 56.4584 152.145 56.6339C151.89 56.8053 151.635 56.9645 151.373 57.1073L151.039 56.3849C151.377 56.2013 151.703 55.9849 152.021 55.7482C152.335 55.5074 152.618 55.2462 152.86 54.9687C153.107 54.687 153.302 54.3891 153.449 54.0708C153.596 53.7524 153.672 53.4259 153.672 53.083C153.672 52.8953 153.656 52.6994 153.62 52.4872C153.584 52.279 153.541 52.0627 153.485 51.8423C153.429 51.626 153.37 51.4056 153.306 51.1893C153.242 50.973 153.179 50.7607 153.123 50.5566L153.855 50.3118Z" fill="#717171"/>
    <path d="M164.016 49.2876C164.135 49.2876 164.247 49.2958 164.358 49.3121C164.466 49.3284 164.565 49.3488 164.656 49.3692C164.748 49.3937 164.827 49.4182 164.899 49.4427C164.971 49.4713 165.026 49.4917 165.074 49.508C165.042 49.5815 165.01 49.6468 164.983 49.708C164.955 49.7692 164.927 49.8304 164.899 49.8917C164.871 49.9488 164.847 50.01 164.82 50.0712C164.792 50.1325 164.764 50.1978 164.732 50.2712C164.664 50.2427 164.569 50.2141 164.446 50.1855C164.322 50.1569 164.187 50.1406 164.04 50.1406C164.02 50.1406 164 50.1406 163.98 50.1406C163.817 50.1406 163.65 50.1692 163.487 50.2222C163.324 50.2794 163.161 50.361 163.006 50.4671C162.851 50.5773 162.704 50.7039 162.572 50.8467C162.441 50.9896 162.326 51.1406 162.23 51.3038C162.135 51.463 162.063 51.6303 162.007 51.7936C161.952 51.9609 161.928 52.1201 161.928 52.2711C161.928 52.4589 161.968 52.614 162.043 52.7323C162.119 52.8507 162.218 52.9486 162.342 53.0262C162.461 53.0996 162.596 53.1609 162.739 53.2058C162.886 53.2507 163.026 53.2874 163.165 53.32C163.344 53.369 163.515 53.418 163.69 53.4711C163.861 53.5241 164.016 53.5976 164.147 53.6874C164.279 53.7812 164.386 53.8955 164.47 54.0384C164.553 54.1812 164.593 54.3649 164.593 54.5894C164.593 54.9199 164.533 55.2138 164.41 55.4628C164.287 55.7158 164.123 55.9321 163.921 56.1158C163.718 56.2995 163.479 56.4546 163.213 56.577C162.946 56.6994 162.668 56.7974 162.377 56.8709C162.087 56.9443 161.793 56.9974 161.498 57.03C161.204 57.0627 160.926 57.079 160.667 57.079C160.186 57.079 159.744 57.0178 159.339 56.8913C158.933 56.7648 158.579 56.577 158.285 56.324C157.986 56.0709 157.752 55.7566 157.585 55.3812C157.418 55.0057 157.334 54.5649 157.334 54.0629C157.334 53.8996 157.346 53.7323 157.362 53.5608C157.386 53.3649 157.421 53.1609 157.461 52.9527C157.501 52.7446 157.545 52.5364 157.589 52.3323C157.632 52.1283 157.68 51.9324 157.728 51.7405C157.775 51.5528 157.823 51.3773 157.867 51.2181C157.911 51.0589 157.95 50.9202 157.986 50.8059C158.022 50.6875 158.05 50.5977 158.07 50.5365C158.197 50.5855 158.324 50.6345 158.448 50.6834C158.571 50.7324 158.69 50.7773 158.81 50.8222C158.742 51.0426 158.674 51.2712 158.611 51.512C158.547 51.7487 158.483 51.9895 158.428 52.2344C158.368 52.4793 158.316 52.7201 158.273 52.9609C158.225 53.2017 158.185 53.4343 158.153 53.6588C158.145 53.7159 158.141 53.7812 158.137 53.8506C158.133 53.92 158.129 53.9894 158.129 54.0629C158.129 54.4343 158.193 54.7526 158.324 55.0261C158.452 55.2995 158.631 55.524 158.857 55.6995C159.084 55.8791 159.351 56.0097 159.661 56.0954C159.971 56.1811 160.305 56.226 160.671 56.226C161.144 56.226 161.57 56.1852 161.952 56.0995C162.334 56.0179 162.656 55.9077 162.926 55.7689C163.197 55.6301 163.408 55.475 163.563 55.2995C163.714 55.124 163.801 54.9404 163.817 54.7567C163.817 54.7445 163.817 54.7363 163.817 54.7281C163.817 54.6547 163.793 54.5894 163.746 54.5363C163.698 54.4792 163.63 54.4261 163.543 54.3812C163.455 54.3322 163.356 54.2914 163.248 54.2547C163.137 54.218 163.03 54.1853 162.914 54.1527C162.644 54.0751 162.401 53.9935 162.19 53.9037C161.98 53.8139 161.797 53.7037 161.65 53.5731C161.502 53.4425 161.387 53.2792 161.311 53.0874C161.236 52.8956 161.196 52.6548 161.196 52.3731C161.196 52.0997 161.232 51.8344 161.307 51.5773C161.383 51.3161 161.482 51.0753 161.614 50.8426C161.745 50.6141 161.9 50.4018 162.079 50.21C162.258 50.0182 162.453 49.8549 162.664 49.7161C162.875 49.5774 163.093 49.4713 163.324 49.3937C163.543 49.3243 163.777 49.2876 164.016 49.2876Z" fill="#717171"/>
    <path d="M167.831 50.3118C167.882 50.4913 167.942 50.6913 168.006 50.9199C168.069 51.1485 168.133 51.3811 168.193 51.6219C168.252 51.8627 168.3 52.1117 168.34 52.3606C168.38 52.6096 168.399 52.8504 168.399 53.079C168.399 53.3647 168.36 53.6463 168.28 53.9157C168.201 54.1891 168.093 54.4503 167.954 54.6993C167.815 54.9483 167.652 55.1891 167.461 55.4176C167.27 55.6462 167.059 55.8625 166.836 56.0666C166.614 56.2706 166.371 56.4584 166.12 56.6339C165.866 56.8053 165.611 56.9645 165.349 57.1073L165.015 56.3849C165.353 56.2013 165.679 55.9849 165.997 55.7482C166.311 55.5074 166.594 55.2462 166.836 54.9687C167.083 54.687 167.278 54.3891 167.425 54.0708C167.572 53.7524 167.648 53.4259 167.648 53.083C167.648 52.8953 167.632 52.6994 167.596 52.4872C167.56 52.279 167.516 52.0627 167.461 51.8423C167.405 51.626 167.345 51.4056 167.282 51.1893C167.218 50.973 167.155 50.7607 167.099 50.5566L167.831 50.3118Z" fill="#717171"/>
    <path d="M169.232 56.2627C169.721 56.1484 170.163 55.9892 170.556 55.7852C170.95 55.5811 171.288 55.3525 171.571 55.0995C171.853 54.8464 172.076 54.5771 172.243 54.2873C172.41 54.0016 172.509 53.72 172.549 53.4384C172.442 53.4424 172.338 53.4424 172.235 53.4424C172.084 53.4424 171.909 53.4383 171.714 53.4302C171.519 53.422 171.312 53.3975 171.093 53.3567C170.875 53.32 170.68 53.2588 170.501 53.1812C170.322 53.1037 170.167 52.9976 170.039 52.8669C169.912 52.7323 169.813 52.569 169.741 52.3772C169.669 52.1854 169.634 51.9527 169.634 51.6833C169.638 51.5201 169.654 51.3446 169.689 51.1568C169.721 50.9732 169.773 50.7895 169.833 50.6099C169.896 50.4303 169.972 50.2589 170.063 50.0957C170.155 49.9324 170.258 49.7896 170.377 49.6671C170.497 49.5447 170.628 49.4467 170.775 49.3733C170.922 49.2998 171.081 49.2631 171.252 49.2631C171.491 49.2631 171.706 49.3202 171.901 49.4304C172.096 49.5406 172.267 49.6916 172.422 49.8794C172.573 50.0671 172.708 50.2834 172.82 50.5242C172.931 50.7691 173.026 51.0222 173.098 51.2834C173.174 51.5487 173.225 51.8139 173.261 52.0792C173.297 52.3445 173.313 52.5935 173.313 52.8261C173.313 53.218 173.265 53.5812 173.166 53.9281C173.066 54.275 172.931 54.5934 172.756 54.8873C172.581 55.1811 172.374 55.4505 172.131 55.6872C171.889 55.928 171.622 56.1402 171.332 56.3239C171.042 56.5076 170.735 56.6627 170.409 56.7851C170.083 56.9076 169.749 56.9973 169.407 57.0586L169.232 56.2627ZM171.249 50.0793C171.129 50.0793 171.01 50.1283 170.895 50.2344C170.779 50.3365 170.676 50.4712 170.584 50.6263C170.493 50.7813 170.417 50.9568 170.362 51.1446C170.306 51.3323 170.278 51.5078 170.278 51.6711C170.294 51.8384 170.346 51.9772 170.429 52.0915C170.513 52.2017 170.62 52.2915 170.747 52.3609C170.875 52.4302 171.022 52.4792 171.181 52.5119C171.34 52.5445 171.503 52.5649 171.67 52.5772C171.837 52.5894 172 52.5935 172.155 52.5935C172.314 52.5935 172.454 52.5935 172.581 52.5935C172.581 52.4384 172.569 52.267 172.541 52.0833C172.513 51.8997 172.474 51.7119 172.422 51.5282C172.37 51.3405 172.306 51.1609 172.227 50.9854C172.151 50.8099 172.06 50.6548 171.964 50.5201C171.865 50.3854 171.758 50.2793 171.638 50.1977C171.515 50.1202 171.388 50.0793 171.249 50.0793Z" fill="#717171"/>
    <path d="M176.637 53.4419C176.343 53.4419 176.08 53.4093 175.85 53.3399C175.619 53.2746 175.42 53.1644 175.261 53.0175C175.098 52.8706 174.975 52.6787 174.891 52.442C174.804 52.2053 174.764 51.9196 174.764 51.5808C174.764 51.3237 174.764 51.0421 174.768 50.7278C174.768 50.4135 174.772 50.087 174.772 49.7483C174.772 49.4095 174.768 49.0667 174.764 48.7197C174.76 48.3728 174.752 48.0341 174.744 47.7035C174.732 47.3729 174.72 47.0627 174.7 46.7688C174.68 46.475 174.657 46.2137 174.629 45.9811L175.384 45.8383C175.412 46.0219 175.436 46.2382 175.456 46.4831C175.476 46.7321 175.492 46.9974 175.504 47.2831C175.516 47.5688 175.524 47.8667 175.532 48.1769C175.536 48.4871 175.539 48.7891 175.539 49.0871C175.539 49.5115 175.539 49.9197 175.543 50.3115C175.543 50.4421 175.543 50.5768 175.543 50.7115C175.543 50.9727 175.543 51.238 175.539 51.4992C175.539 51.7237 175.555 51.9073 175.591 52.0543C175.623 52.2012 175.683 52.3155 175.766 52.4053C175.85 52.491 175.957 52.5563 176.092 52.5889C176.228 52.6257 176.399 52.642 176.605 52.642H176.745V53.4501H176.637V53.4419Z" fill="#717171"/>
    <path d="M180.143 52.6342V53.4423H180.047C179.737 53.4423 179.475 53.377 179.26 53.2464C179.045 53.1199 178.862 52.9525 178.715 52.7485C178.492 52.9852 178.222 53.1566 177.899 53.2709C177.577 53.3852 177.187 53.4423 176.726 53.4423H176.547V52.6342H176.726C177.299 52.6342 177.716 52.5199 177.979 52.2954C178.242 52.071 178.373 51.7363 178.373 51.2873C178.373 51.1037 178.361 50.9118 178.337 50.72C178.313 50.5282 178.269 50.3078 178.206 50.0629C178.341 50.0262 178.464 49.9894 178.576 49.9527C178.687 49.916 178.806 49.8792 178.93 49.8425C178.957 49.9486 178.977 50.0507 178.997 50.1568C179.017 50.2629 179.033 50.3731 179.049 50.4874C179.065 50.6016 179.077 50.7282 179.089 50.8669C179.101 51.0057 179.113 51.1608 179.128 51.3281C179.136 51.4669 179.156 51.6138 179.188 51.7648C179.216 51.9199 179.264 52.0587 179.331 52.1893C179.399 52.3158 179.49 52.426 179.606 52.5077C179.721 52.5934 179.872 52.6342 180.055 52.6342H180.143ZM178.786 47.9201L178.074 48.6793L177.362 47.9201L178.074 47.161L178.786 47.9201Z" fill="#717171"/>
    <path d="M180.042 52.6342C180.492 52.6342 180.89 52.6179 181.236 52.5852C181.578 52.5526 181.876 52.4954 182.131 52.4179C182.385 52.3403 182.6 52.2383 182.779 52.1118C182.958 51.9853 183.109 51.8261 183.232 51.6424C183.021 51.6628 182.819 51.6751 182.628 51.6751C182.421 51.6751 182.186 51.6587 181.924 51.622C181.661 51.5853 181.415 51.4955 181.188 51.3404C180.961 51.1894 180.802 50.9771 180.703 50.7037C180.643 50.5323 180.611 50.3282 180.611 50.0915C180.611 49.9609 180.623 49.818 180.639 49.667C180.667 49.4589 180.723 49.2466 180.802 49.0303C180.882 48.8099 180.985 48.614 181.112 48.4344C181.24 48.2589 181.387 48.112 181.554 47.9977C181.721 47.8834 181.904 47.8263 182.107 47.8263C182.31 47.8263 182.496 47.8753 182.671 47.9651C182.846 48.0589 183.002 48.1855 183.145 48.3446C183.284 48.5038 183.407 48.6875 183.515 48.8915C183.622 49.0997 183.71 49.316 183.781 49.5446C183.853 49.7731 183.908 50.0017 183.944 50.2384C183.98 50.4751 184 50.6955 184 50.8996C184 51.2424 183.952 51.5404 183.853 51.7975C183.757 52.0587 183.622 52.2791 183.451 52.4669C183.28 52.6546 183.073 52.8097 182.831 52.9362C182.592 53.0628 182.325 53.1607 182.039 53.2342C181.753 53.3076 181.442 53.3607 181.112 53.3933C180.782 53.426 180.448 53.4423 180.102 53.4423H179.939V52.6342H180.042ZM182.111 48.6426C182.055 48.6426 181.987 48.6671 181.904 48.712C181.82 48.7609 181.737 48.8262 181.653 48.9201C181.57 49.014 181.49 49.1323 181.419 49.2752C181.347 49.418 181.295 49.5854 181.263 49.7731C181.248 49.867 181.24 49.9527 181.24 50.0262C181.24 50.1649 181.271 50.2915 181.339 50.4057C181.407 50.52 181.514 50.6139 181.669 50.6792C181.82 50.7445 181.995 50.7853 182.19 50.7976C182.385 50.8098 182.576 50.8139 182.759 50.8139C182.827 50.8139 182.906 50.8139 182.994 50.8098C183.081 50.8057 183.181 50.8016 183.288 50.7935C183.284 50.671 183.268 50.5364 183.24 50.3813C183.212 50.2302 183.173 50.0711 183.125 49.9119C183.073 49.7527 183.014 49.5976 182.946 49.4425C182.874 49.2874 182.799 49.1528 182.711 49.0303C182.624 48.9119 182.532 48.814 182.433 48.7405C182.329 48.6793 182.226 48.6426 182.111 48.6426ZM182.783 45.8835L182.071 46.6427L181.359 45.8835L182.071 45.1244L182.783 45.8835Z" fill="#717171"/>
    <path d="M0 53.3525V46.312H3.8979V47.014H0.918792V49.3241H3.68709V50.0302H0.918792V53.3525H0Z" fill="#717171"/>
    <path d="M6.90125 46.312H8.11835L10.4531 53.3525H9.43886L8.78656 51.324H6.16144L5.5529 53.3525H4.53467L6.90125 46.312ZM7.50184 46.8752H7.47798L6.3802 50.622H8.57178L7.50184 46.8752Z" fill="#717171"/>
    <path d="M13.1605 53.3525H12.2417V46.312H14.3776C16.1157 46.312 17.2215 46.6957 17.1698 48.3201C17.1379 49.1445 16.5373 49.7363 15.5748 49.8506V49.871C16.6487 49.9567 16.9152 50.2465 17.0465 51.1852C17.0783 51.7117 17.134 52.226 17.2215 52.7525C17.2533 52.8831 17.3209 53.1933 17.5436 53.1933V53.3525H16.4697C16.2709 52.9035 16.1833 52.0301 16.1833 51.5607C16.1833 50.8546 15.8532 50.2547 14.7674 50.2547H13.1605V53.3525ZM13.1605 49.5486H14.6123C15.0458 49.5404 16.239 49.4833 16.2191 48.2548C16.1953 47.0426 15.0776 47.014 14.4571 47.014H13.1605V49.5486Z" fill="#717171"/>
    <path d="M19.6836 53.3525V46.312H21.9627C24.552 46.312 24.91 48.0956 24.8423 49.8343C24.7747 51.5526 24.377 53.3565 22.1297 53.3565H19.6836V53.3525ZM20.6024 52.6464H22.074C23.4264 52.6464 23.9792 51.7934 23.8917 49.6874C23.8241 48.0834 23.5616 47.0099 22.074 47.0099H20.6024V52.6464Z" fill="#717171"/>
    <path d="M28.7561 46.312H29.9732L32.3079 53.3525H31.2897L30.6374 51.324H28.0123L27.4037 53.3525H26.3855L28.7561 46.312ZM29.3527 46.8752H29.3288L28.231 50.622H30.4226L29.3527 46.8752Z" fill="#717171"/>
    <path d="M42.7892 46.312H44.408V53.3525H43.4892V47.5487C43.4892 47.2467 43.5131 46.9569 43.4892 46.6589H43.4654C43.3659 47.0712 43.2864 47.3365 43.2108 47.6058L41.4727 53.3525H40.3749L38.6368 47.5242C38.5572 47.2793 38.4936 47.0467 38.3941 46.6589H38.3703C38.3703 46.961 38.3941 47.2671 38.3941 47.5691V53.3525H37.4753V46.312H39.1021L40.7289 51.8056C40.8164 52.1076 40.8601 52.3974 40.9039 52.8464H40.9278C40.9834 52.4913 41.0391 52.1403 41.1386 51.7934L42.7892 46.312Z" fill="#717171"/>
    <path d="M46.7903 53.3525V46.312H50.9427V47.014H47.7091V49.3404H50.7439V50.0465H47.7091V52.6464H50.9626V53.3525H46.7903Z" fill="#717171"/>
    <path d="M53.1338 53.3525V46.312H55.4129C58.0022 46.312 58.3602 48.0956 58.2925 49.8343C58.2249 51.5526 57.8272 53.3565 55.5799 53.3565H53.1338V53.3525ZM54.0526 52.6464H55.5242C56.8766 52.6464 57.4294 51.7934 57.3419 49.6874C57.2743 48.0834 57.0118 47.0099 55.5242 47.0099H54.0526V52.6464Z" fill="#717171"/>
    <path d="M60.7981 53.3525V46.312H61.7169V53.3525H60.7981Z" fill="#717171"/>
    <path d="M68.1642 48.4221C68.1404 47.5854 67.8222 46.8712 66.6687 46.8712C65.0738 46.8712 65.0499 48.7976 65.0499 49.7241C65.0062 50.6832 64.9823 52.8137 66.6687 52.8137C67.7665 52.8137 67.9972 52.0546 68.1086 51.2832C68.1324 51.124 68.1404 50.9649 68.1642 50.8057H69.083C69.0592 50.9485 69.0592 51.0955 69.0393 51.2383C68.9836 51.8097 68.9518 52.2423 68.554 52.7321C68.1205 53.2382 67.5477 53.5198 66.7483 53.5198C64.1908 53.5198 64.1033 51.4261 64.1033 49.7445C64.1033 48.1568 64.3817 46.1692 66.7403 46.1692C68.3114 46.1692 69.1308 47.1651 69.087 48.4221H68.1642Z" fill="#717171"/>
    <path d="M72.8823 46.312H74.0994L76.4341 53.3525H75.4159L74.7636 51.324H72.1385L71.5299 53.3525H70.5117L72.8823 46.312ZM73.4829 46.8752H73.459L72.3612 50.622H74.5528L73.4829 46.8752Z" fill="#717171"/>
    <path d="M78.187 53.3525V46.312H79.1058V52.6505H82.4946V53.3565H78.187V53.3525Z" fill="#717171"/>
    <path d="M85.7258 53.3527V52.4139H86.7321V53.3527H85.7258Z" fill="#717171"/>
    <path d="M177.237 6.64282H149.441C145.702 6.64282 142.67 9.74493 142.67 13.5717V29.9533H101.452C101.341 29.9045 101.245 29.8638 101.134 29.8149L90.3646 18.5342C89.1274 17.2396 88.4352 15.5013 88.4352 13.6938V6.78531H82.1058V29.3508C82.1058 29.6032 81.9069 29.8068 81.6603 29.8068H55.9053V36.2837H81.6603C85.3998 36.2837 88.4312 33.1816 88.4312 29.3549V25.7846L96.6025 34.3459C97.8755 35.6812 99.6219 36.4303 101.444 36.4303H177.229C180.969 36.4303 184 33.3282 184 29.5015V13.5757C184.008 9.74492 180.977 6.64282 177.237 6.64282ZM177.679 29.5015C177.679 29.7539 177.48 29.9574 177.233 29.9574H148.996V13.5757C148.996 13.3233 149.195 13.1198 149.441 13.1198H177.233C177.48 13.1198 177.679 13.3233 177.679 13.5757V29.5015Z" fill="#60547B"/>
    <path d="M44.0583 36.4306H12.6582V29.9536H44.0623C44.3089 29.9536 44.5078 29.7501 44.5078 29.4977V13.5719C44.5078 13.3195 44.3089 13.116 44.0623 13.116H12.6582V6.63904H44.0623C47.7978 6.63904 50.8332 9.74928 50.8332 13.5719V29.4977C50.8332 33.3203 47.7939 36.4306 44.0583 36.4306Z" fill="#60547B"/>
    <path d="M6.32935 0.801392H0V36.4307H6.32935V0.801392Z" fill="#60547B"/>
    <path d="M166.998 3.74124V0L159.682 0V3.74124L166.998 3.74124Z" fill="#60547B"/>
    <path d="M281.471 6.60951C276.198 1.27196 268.948 -0.831812 262.114 0.294561C261.902 0.330895 261.69 0.36723 261.475 0.410831C261.356 0.428998 261.241 0.454434 261.123 0.483502C260.979 0.51257 260.832 0.545269 260.689 0.581604C260.635 0.592504 260.584 0.603404 260.538 0.617938C260.337 0.668807 260.129 0.719675 259.928 0.774177C259.741 0.821412 259.551 0.875914 259.368 0.930416C259.195 0.984918 259.023 1.03942 258.851 1.09029C258.682 1.14842 258.51 1.20656 258.341 1.2647C258.172 1.32646 258 1.38823 257.831 1.45C257.508 1.57717 257.189 1.70434 256.873 1.84605C256.241 2.12219 255.628 2.4274 255.025 2.76168C254.712 2.93245 254.407 3.11413 254.106 3.29943V3.30306C253.973 3.383 253.847 3.46294 253.714 3.54651C253.492 3.69185 253.269 3.84445 253.047 3.99342C253.047 3.99706 253.047 3.99706 253.043 3.99706C252.824 4.14966 252.605 4.31317 252.39 4.47304C252.232 4.59658 252.07 4.71648 251.913 4.84728C251.902 4.85455 251.891 4.86182 251.88 4.87272C251.762 4.96719 251.651 5.06166 251.532 5.15976C251.485 5.19246 251.439 5.23243 251.396 5.27604C251.27 5.38141 251.148 5.48677 251.026 5.59578C250.9 5.70115 250.782 5.81015 250.66 5.92642C250.581 5.99909 250.506 6.06449 250.43 6.14079C250.269 6.28977 250.107 6.44964 249.949 6.60951L247.993 8.58975L246.457 7.03463L246.044 6.61678C241.694 2.21303 235.99 0.0111511 230.287 0.0111511C224.583 0.0111511 218.88 2.21303 214.529 6.61678C209.257 11.9543 207.178 19.2939 208.291 26.212C208.327 26.4264 208.363 26.6408 208.406 26.8588C208.424 26.9787 208.449 27.095 208.478 27.2149C208.506 27.3602 208.539 27.5092 208.575 27.6545C208.585 27.709 208.596 27.7599 208.61 27.8071C208.661 28.0106 208.711 28.2213 208.765 28.4248C208.811 28.6137 208.865 28.8063 208.919 28.9916C208.973 29.166 209.027 29.3404 209.077 29.5148C209.134 29.6856 209.192 29.86 209.249 30.0308C209.31 30.2016 209.371 30.376 209.432 30.5467C209.558 30.8738 209.684 31.1971 209.824 31.5169C210.096 32.1564 210.398 32.7777 210.728 33.3881C210.897 33.7042 211.076 34.0131 211.259 34.3183H211.263C211.342 34.4527 211.421 34.5799 211.503 34.7143C211.647 34.9396 211.798 35.1649 211.945 35.3901C211.949 35.3901 211.949 35.3901 211.949 35.3938C212.099 35.6154 212.261 35.8371 212.419 36.0551C212.541 36.2149 212.659 36.3784 212.788 36.5383C212.796 36.5492 212.803 36.5601 212.814 36.571C212.907 36.6909 213 36.8036 213.097 36.9235C213.129 36.9707 213.169 37.0179 213.212 37.0615C213.316 37.1887 213.42 37.3122 213.528 37.4358C213.632 37.563 213.74 37.6829 213.855 37.8064C213.926 37.8863 213.991 37.9626 214.066 38.0389C214.213 38.2024 214.371 38.3659 214.529 38.5258L229.626 53.8081C229.877 54.0443 230.118 54.2878 230.351 54.5421C232.508 56.8639 234.02 59.807 234.597 63.0735C234.691 63.6076 235.15 64 235.685 64C236.051 64 236.399 63.8183 236.6 63.5095C236.948 62.9754 237.272 62.4231 237.569 61.8526C239.03 59.0476 239.859 55.8538 239.859 52.4601C239.859 49.2445 239.116 46.1997 237.788 43.5C237.031 41.9594 236.001 40.5715 234.798 39.3579L221.493 25.8886C218.736 23.4433 216.999 19.8571 216.999 15.853C216.999 10.6209 219.978 6.08993 224.31 3.91349C224.515 3.80448 224.72 3.71001 224.935 3.61918C225.014 3.57921 225.089 3.54651 225.172 3.51381C225.305 3.4593 225.434 3.4048 225.567 3.35757C225.667 3.3176 225.768 3.27763 225.868 3.24493C225.947 3.21586 226.022 3.19043 226.101 3.16136C226.263 3.10686 226.432 3.05599 226.6 3.01239C226.694 2.98332 226.787 2.95425 226.884 2.93245C227.979 2.63814 229.106 2.49644 230.229 2.49644C233.607 2.49644 236.981 3.80085 239.554 6.40967L244.852 11.7727L237.06 19.6609C236.826 19.9152 236.586 20.1587 236.335 20.3949C234.041 22.5786 231.134 24.1083 227.907 24.6932C227.379 24.7877 226.992 25.2528 226.992 25.7942C226.992 26.1648 227.171 26.5172 227.476 26.7207C228.004 27.0732 228.553 27.4002 229.113 27.7017C231.884 29.1806 235.039 30.0199 238.391 30.0199C241.568 30.0199 244.576 29.2678 247.243 27.9234C248.765 27.1567 250.136 26.1139 251.338 24.8967L262.437 13.6621C264.852 10.8716 268.395 9.11297 272.35 9.11297C277.519 9.11297 281.995 12.1287 284.145 16.5143C284.253 16.7214 284.346 16.9285 284.436 17.1465C284.475 17.2265 284.508 17.3028 284.54 17.3864C284.594 17.5208 284.648 17.6516 284.694 17.786C284.734 17.8878 284.773 17.9895 284.805 18.0912C284.834 18.1712 284.859 18.2475 284.888 18.3274C284.942 18.4909 284.992 18.6617 285.035 18.8325C285.064 18.9269 285.093 19.0214 285.114 19.1195C285.405 20.2277 285.545 21.3686 285.545 22.5059C285.545 25.925 284.256 29.3404 281.679 31.9456L277.917 35.7535C277.081 36.6001 277.081 37.9735 277.917 38.8238L278.029 38.9364C278.865 39.783 280.222 39.783 281.062 38.9364L281.475 38.5185C285.825 34.1148 288 28.3412 288 22.5677C287.996 16.7868 285.821 11.0133 281.471 6.60951Z" fill="#23B099"/>
</svg>
