<svg width="184" height="140" viewBox="0 0 184 140" fill="none" xmlns="http://www.w3.org/2000/svg">
<path d="M92.0515 136.506C91.7575 136.506 91.4952 136.475 91.2648 136.409C91.0343 136.347 90.8356 136.242 90.6767 136.102C90.5138 135.962 90.3906 135.779 90.3072 135.553C90.2198 135.328 90.18 135.055 90.18 134.732C90.18 134.487 90.18 134.219 90.184 133.919C90.184 133.62 90.188 133.309 90.188 132.986C90.188 132.663 90.184 132.336 90.18 132.005C90.176 131.675 90.1681 131.352 90.1602 131.037C90.1482 130.721 90.1363 130.426 90.1164 130.146C90.0966 129.866 90.0727 129.617 90.0449 129.395L90.7999 129.259C90.8277 129.434 90.8515 129.64 90.8714 129.873C90.8913 130.111 90.9071 130.364 90.9191 130.636C90.931 130.908 90.9389 131.192 90.9469 131.488C90.9509 131.784 90.9548 132.071 90.9548 132.355C90.9548 132.76 90.9548 133.149 90.9588 133.523C90.9588 133.647 90.9588 133.775 90.9588 133.904C90.9588 134.153 90.9588 134.406 90.9548 134.655C90.9548 134.869 90.9707 135.044 91.0065 135.184C91.0383 135.324 91.0979 135.433 91.1813 135.518C91.2648 135.6 91.372 135.662 91.5071 135.693C91.6422 135.728 91.8131 135.744 92.0197 135.744H92.1588V136.514H92.0515V136.506Z" fill="#717171"/>
<path d="M100.5 135.736V136.506H91.9531V135.736H100.5Z" fill="#717171"/>
<path d="M100.309 135.736H101.207C101.401 135.736 101.596 135.728 101.791 135.716C101.985 135.705 102.172 135.673 102.343 135.631C102.514 135.588 102.669 135.522 102.808 135.44C102.943 135.358 103.054 135.246 103.134 135.105C103.181 135.024 103.209 134.919 103.217 134.794C103.221 134.763 103.221 134.732 103.221 134.701C103.221 134.604 103.213 134.487 103.193 134.359C103.173 134.23 103.142 134.082 103.098 133.919C103.054 133.756 103.003 133.592 102.951 133.429C102.895 133.265 102.84 133.106 102.78 132.954C102.72 132.802 102.669 132.658 102.617 132.53L103.297 132.18C103.356 132.332 103.424 132.495 103.491 132.67C103.559 132.845 103.626 133.028 103.686 133.215C103.746 133.402 103.801 133.592 103.849 133.791C103.897 133.985 103.932 134.176 103.952 134.366C103.96 134.467 103.968 134.569 103.968 134.666C103.968 134.748 103.964 134.853 103.952 134.985C103.94 135.113 103.901 135.257 103.833 135.413C103.742 135.623 103.614 135.798 103.46 135.942C103.305 136.086 103.122 136.195 102.915 136.28C102.709 136.366 102.478 136.424 102.224 136.459C101.969 136.494 101.699 136.51 101.417 136.51H100.313V135.736H100.309ZM102.037 138.218L101.334 138.938L100.619 138.214L101.322 137.49L102.037 138.218ZM103.75 138.226L103.05 138.945L102.335 138.214L103.038 137.494L103.75 138.226Z" fill="#717171"/>
<path d="M106.779 133.522C106.831 133.693 106.89 133.884 106.954 134.102C107.021 134.316 107.081 134.541 107.141 134.771C107.2 135 107.248 135.238 107.288 135.475C107.327 135.712 107.347 135.942 107.347 136.16C107.347 136.432 107.307 136.701 107.228 136.957C107.149 137.218 107.041 137.467 106.902 137.704C106.763 137.942 106.6 138.171 106.409 138.389C106.219 138.607 106.008 138.813 105.786 139.008C105.559 139.202 105.321 139.381 105.07 139.548C104.816 139.712 104.562 139.863 104.3 140L103.966 139.311C104.304 139.136 104.629 138.93 104.947 138.704C105.261 138.475 105.543 138.226 105.786 137.961C106.032 137.693 106.227 137.409 106.374 137.105C106.521 136.802 106.596 136.49 106.596 136.164C106.596 135.985 106.58 135.798 106.545 135.596C106.509 135.397 106.465 135.191 106.409 134.981C106.354 134.775 106.294 134.565 106.231 134.359C106.167 134.152 106.104 133.95 106.048 133.756L106.779 133.522Z" fill="#717171"/>
<path d="M107.375 128.974C107.41 128.838 107.466 128.71 107.541 128.585C107.617 128.461 107.708 128.348 107.812 128.254C107.915 128.157 108.026 128.083 108.149 128.025C108.272 127.967 108.396 127.939 108.519 127.939C108.654 127.939 108.777 127.955 108.892 127.99C109.008 128.025 109.111 128.064 109.202 128.107C109.29 128.142 109.381 128.177 109.472 128.204C109.564 128.231 109.659 128.247 109.759 128.251C109.77 128.251 109.782 128.251 109.79 128.251C109.85 128.251 109.914 128.235 109.981 128.204C110.049 128.173 110.112 128.134 110.176 128.083C110.239 128.033 110.295 127.982 110.343 127.932C110.39 127.877 110.43 127.834 110.458 127.799C110.537 127.854 110.617 127.904 110.696 127.959C110.776 128.013 110.851 128.064 110.931 128.114C110.911 128.142 110.871 128.2 110.808 128.282C110.744 128.363 110.661 128.445 110.557 128.531C110.454 128.612 110.331 128.69 110.192 128.756C110.065 128.815 109.929 128.846 109.778 128.846C109.767 128.846 109.751 128.846 109.735 128.846C109.592 128.846 109.465 128.826 109.345 128.791C109.226 128.756 109.115 128.714 109.012 128.671C108.904 128.628 108.805 128.593 108.706 128.562C108.642 128.542 108.578 128.535 108.511 128.535C108.475 128.535 108.439 128.538 108.404 128.542C108.344 128.554 108.292 128.581 108.241 128.628C108.189 128.675 108.141 128.729 108.102 128.787C108.058 128.846 108.026 128.912 107.994 128.978C107.967 129.048 107.943 129.103 107.923 129.153L107.375 128.974ZM109.528 129.581C109.627 130.775 109.691 131.946 109.723 133.102C109.727 133.39 109.731 133.678 109.731 133.966C109.731 134.825 109.703 135.67 109.643 136.506C109.5 136.498 109.373 136.49 109.258 136.479C109.143 136.471 109.02 136.463 108.884 136.455C108.92 136.14 108.944 135.786 108.956 135.401C108.968 135.012 108.976 134.611 108.976 134.191C108.976 133.775 108.968 133.351 108.956 132.927C108.944 132.499 108.924 132.09 108.904 131.697C108.884 131.305 108.861 130.935 108.841 130.589C108.817 130.246 108.797 129.951 108.773 129.698L109.528 129.581Z" fill="#717171"/>
<path d="M115.914 139.898C115.433 139.887 115.004 139.813 114.623 139.677C114.241 139.541 113.915 139.342 113.649 139.085C113.383 138.829 113.176 138.513 113.037 138.14C112.894 137.767 112.827 137.339 112.827 136.86C112.827 136.607 112.847 136.35 112.89 136.09C112.934 135.829 112.994 135.572 113.065 135.327C113.137 135.078 113.22 134.849 113.315 134.627C113.411 134.405 113.51 134.211 113.613 134.036L114.233 134.499C114.174 134.592 114.11 134.72 114.035 134.888C113.959 135.055 113.892 135.246 113.828 135.46C113.764 135.673 113.709 135.903 113.665 136.148C113.621 136.397 113.598 136.642 113.598 136.887C113.598 137.039 113.609 137.199 113.633 137.366C113.657 137.533 113.701 137.696 113.764 137.86C113.828 138.023 113.915 138.175 114.027 138.323C114.138 138.467 114.281 138.599 114.456 138.716C114.631 138.832 114.837 138.926 115.08 138.996C115.322 139.066 115.608 139.105 115.934 139.116C115.978 139.116 116.021 139.116 116.065 139.116C116.454 139.116 116.812 139.062 117.134 138.953C117.456 138.844 117.734 138.677 117.968 138.455C118.203 138.233 118.378 137.965 118.497 137.646C118.616 137.327 118.68 136.977 118.68 136.588C118.68 136.3 118.652 136.02 118.596 135.755C118.54 135.487 118.473 135.246 118.393 135.02C118.314 134.798 118.234 134.6 118.151 134.432C118.068 134.265 118 134.137 117.944 134.047L118.616 133.608C118.644 133.654 118.687 133.724 118.739 133.822C118.791 133.919 118.85 134.036 118.91 134.176C118.97 134.316 119.033 134.471 119.097 134.643C119.16 134.818 119.22 135.004 119.272 135.211C119.323 135.417 119.367 135.631 119.399 135.856C119.43 136.082 119.45 136.319 119.45 136.561C119.45 137.082 119.363 137.549 119.188 137.969C119.013 138.389 118.771 138.747 118.457 139.039C118.147 139.33 117.774 139.552 117.34 139.7C116.959 139.836 116.542 139.902 116.101 139.902C116.033 139.902 115.974 139.902 115.914 139.898ZM116.884 133.409L116.172 134.133L115.461 133.409L116.172 132.686L116.884 133.409Z" fill="#717171"/>
<path d="M122.277 136.506C121.983 136.506 121.721 136.475 121.49 136.409C121.26 136.347 121.061 136.242 120.902 136.102C120.739 135.962 120.616 135.779 120.533 135.553C120.445 135.327 120.406 135.055 120.406 134.732C120.406 134.487 120.406 134.219 120.41 133.919C120.41 133.62 120.414 133.308 120.414 132.985C120.414 132.663 120.41 132.336 120.406 132.005C120.402 131.674 120.394 131.351 120.386 131.036C120.374 130.721 120.362 130.426 120.342 130.145C120.322 129.865 120.298 129.616 120.271 129.395L121.025 129.258C121.053 129.433 121.077 129.64 121.097 129.873C121.117 130.11 121.133 130.363 121.145 130.636C121.157 130.908 121.165 131.192 121.172 131.488C121.176 131.783 121.18 132.071 121.18 132.355C121.18 132.76 121.18 133.149 121.184 133.522C121.184 133.647 121.184 133.775 121.184 133.904C121.184 134.153 121.184 134.405 121.18 134.654C121.18 134.868 121.196 135.043 121.232 135.183C121.264 135.324 121.323 135.432 121.407 135.518C121.49 135.6 121.598 135.662 121.733 135.693C121.868 135.728 122.039 135.744 122.245 135.744H122.384V136.514H122.277V136.506Z" fill="#717171"/>
<path d="M128.342 135.736V136.506H122.18V135.736H128.342Z" fill="#717171"/>
<path d="M128.244 135.736C128.526 135.736 128.768 135.689 128.967 135.596C129.166 135.502 129.337 135.378 129.48 135.222C129.627 135.067 129.75 134.892 129.857 134.693C129.964 134.495 130.072 134.289 130.175 134.079C130.258 133.9 130.342 133.732 130.421 133.573C130.505 133.413 130.596 133.273 130.699 133.145C130.974 132.806 131.299 132.635 131.681 132.635C132.134 132.635 132.515 132.822 132.821 133.199C132.94 133.347 133.036 133.518 133.111 133.717C133.187 133.911 133.238 134.117 133.266 134.331C133.282 134.464 133.29 134.592 133.29 134.72C133.29 134.806 133.282 134.927 133.27 135.075C133.254 135.226 133.215 135.394 133.143 135.572C133.056 135.79 132.94 135.973 132.793 136.117C132.646 136.265 132.484 136.362 132.301 136.409C132.189 136.44 132.066 136.456 131.935 136.456C131.693 136.456 131.431 136.397 131.14 136.277C130.835 136.152 130.493 135.95 130.115 135.67C130.008 135.821 129.881 135.95 129.738 136.055C129.595 136.16 129.444 136.246 129.281 136.312C129.118 136.378 128.951 136.428 128.776 136.456C128.601 136.487 128.427 136.502 128.248 136.502H128.145V135.732H128.244V135.736ZM130.552 135.032C130.691 135.137 130.831 135.23 130.974 135.312C131.117 135.39 131.256 135.46 131.387 135.518C131.522 135.572 131.645 135.615 131.764 135.646C131.884 135.678 131.983 135.689 132.066 135.689C132.098 135.689 132.13 135.689 132.158 135.685C132.186 135.681 132.217 135.678 132.249 135.666C132.344 135.635 132.424 135.557 132.484 135.436C132.543 135.316 132.583 135.176 132.603 135.016C132.611 134.942 132.619 134.864 132.619 134.783C132.619 134.693 132.611 134.58 132.591 134.444C132.571 134.304 132.523 134.16 132.452 134.005C132.376 133.853 132.277 133.721 132.15 133.612C132.023 133.503 131.868 133.441 131.685 133.425C131.673 133.425 131.661 133.425 131.649 133.425C131.582 133.425 131.518 133.444 131.458 133.479C131.399 133.514 131.339 133.577 131.276 133.658C131.212 133.744 131.148 133.849 131.081 133.977C131.013 134.106 130.938 134.254 130.854 134.425L130.552 135.032Z" fill="#717171"/>
<path d="M135.353 133.522C135.404 133.693 135.464 133.884 135.528 134.102C135.595 134.316 135.655 134.541 135.714 134.771C135.774 135.001 135.822 135.238 135.861 135.475C135.901 135.713 135.921 135.942 135.921 136.16C135.921 136.432 135.881 136.701 135.802 136.957C135.722 137.218 135.615 137.467 135.476 137.704C135.337 137.942 135.174 138.171 134.983 138.389C134.792 138.607 134.582 138.813 134.359 139.008C134.133 139.202 133.894 139.381 133.644 139.548C133.39 139.712 133.136 139.864 132.873 140L132.54 139.311C132.877 139.136 133.203 138.93 133.521 138.704C133.835 138.475 134.117 138.226 134.359 137.961C134.606 137.693 134.8 137.409 134.947 137.105C135.094 136.802 135.17 136.491 135.17 136.164C135.17 135.985 135.154 135.798 135.118 135.596C135.083 135.397 135.039 135.191 134.983 134.981C134.928 134.775 134.868 134.565 134.804 134.359C134.741 134.152 134.677 133.95 134.622 133.756L135.353 133.522Z" fill="#717171"/>
<path d="M138.897 136.498C138.75 136.498 138.579 136.483 138.385 136.451C138.186 136.416 137.991 136.374 137.797 136.319C137.602 136.265 137.423 136.202 137.256 136.136C137.089 136.066 136.966 136 136.883 135.93L137.205 135.175C137.32 135.245 137.451 135.312 137.602 135.374C137.749 135.436 137.908 135.49 138.071 135.537C138.234 135.584 138.405 135.623 138.575 135.654C138.75 135.681 138.921 135.697 139.088 135.697C139.207 135.697 139.322 135.689 139.438 135.673C139.553 135.658 139.66 135.634 139.768 135.596C139.871 135.561 139.97 135.51 140.058 135.452C140.149 135.393 140.228 135.319 140.296 135.23C140.391 135.109 140.439 134.965 140.439 134.802C140.439 134.775 140.431 134.705 140.419 134.592C140.407 134.479 140.344 134.312 140.236 134.086C140.129 133.864 139.99 133.635 139.819 133.405C139.648 133.176 139.47 132.958 139.279 132.756C139.088 132.553 138.901 132.374 138.715 132.219C138.528 132.067 138.369 131.95 138.238 131.872L138.552 131.153C138.73 131.25 138.909 131.371 139.088 131.515C139.271 131.658 139.45 131.818 139.62 131.993C139.795 132.168 139.962 132.355 140.121 132.553C140.28 132.752 140.423 132.95 140.554 133.156C140.681 133.362 140.793 133.569 140.888 133.779C140.979 133.985 141.051 134.187 141.095 134.382C141.118 134.491 141.134 134.603 141.142 134.724C141.146 134.771 141.146 134.825 141.146 134.876C141.146 134.942 141.142 135.02 141.13 135.109C141.118 135.199 141.095 135.3 141.055 135.409C141.011 135.518 140.952 135.619 140.876 135.712C140.761 135.856 140.626 135.973 140.479 136.074C140.328 136.175 140.169 136.253 139.994 136.315C139.823 136.377 139.64 136.424 139.454 136.451C139.275 136.486 139.084 136.498 138.897 136.498Z" fill="#717171"/>
<path d="M145.578 133.523C145.629 133.694 145.689 133.884 145.753 134.102C145.82 134.316 145.88 134.542 145.939 134.772C145.999 135.001 146.047 135.238 146.086 135.476C146.126 135.713 146.146 135.943 146.146 136.16C146.146 136.433 146.106 136.701 146.027 136.958C145.947 137.219 145.84 137.468 145.701 137.705C145.562 137.942 145.399 138.172 145.208 138.39C145.018 138.607 144.807 138.814 144.584 139.008C144.362 139.203 144.12 139.382 143.869 139.549C143.615 139.712 143.361 139.864 143.098 140L142.765 139.312C143.102 139.137 143.428 138.93 143.746 138.705C144.06 138.475 144.342 138.226 144.584 137.962C144.831 137.693 145.026 137.409 145.173 137.106C145.32 136.802 145.395 136.491 145.395 136.164C145.395 135.985 145.379 135.799 145.343 135.596C145.308 135.398 145.264 135.192 145.208 134.982C145.153 134.775 145.093 134.565 145.03 134.359C144.966 134.153 144.902 133.951 144.847 133.756L145.578 133.523ZM145.872 131.367L145.161 132.091L144.449 131.367L145.161 130.644L145.872 131.367Z" fill="#717171"/>
<path d="M147.084 139.194C147.573 139.086 148.014 138.934 148.407 138.739C148.801 138.545 149.138 138.327 149.42 138.086C149.702 137.845 149.925 137.588 150.092 137.312C150.259 137.039 150.358 136.771 150.398 136.502C150.291 136.506 150.187 136.506 150.084 136.506C149.933 136.506 149.758 136.502 149.563 136.495C149.369 136.487 149.162 136.463 148.944 136.425C148.725 136.39 148.53 136.331 148.352 136.257C148.173 136.183 148.018 136.082 147.891 135.958C147.763 135.829 147.664 135.674 147.593 135.491C147.521 135.308 147.485 135.086 147.485 134.829C147.489 134.674 147.505 134.507 147.541 134.328C147.573 134.153 147.624 133.977 147.684 133.806C147.748 133.635 147.823 133.472 147.914 133.316C148.006 133.16 148.109 133.024 148.228 132.908C148.348 132.791 148.479 132.698 148.626 132.627C148.773 132.557 148.932 132.522 149.102 132.522C149.341 132.522 149.555 132.577 149.75 132.682C149.945 132.787 150.116 132.931 150.271 133.11C150.422 133.289 150.557 133.495 150.668 133.725C150.779 133.958 150.875 134.199 150.946 134.448C151.022 134.701 151.073 134.954 151.109 135.207C151.145 135.46 151.161 135.697 151.161 135.919C151.161 136.292 151.113 136.638 151.014 136.969C150.914 137.3 150.779 137.603 150.604 137.883C150.43 138.164 150.223 138.42 149.981 138.646C149.738 138.875 149.472 139.078 149.182 139.253C148.892 139.428 148.586 139.576 148.26 139.692C147.934 139.809 147.601 139.895 147.259 139.953L147.084 139.194ZM149.099 133.301C148.979 133.301 148.86 133.347 148.745 133.448C148.63 133.546 148.526 133.674 148.435 133.822C148.344 133.97 148.268 134.137 148.212 134.316C148.157 134.495 148.129 134.662 148.129 134.818C148.145 134.977 148.197 135.11 148.28 135.218C148.363 135.324 148.471 135.409 148.598 135.475C148.725 135.541 148.872 135.588 149.031 135.619C149.19 135.65 149.353 135.67 149.52 135.681C149.687 135.693 149.849 135.697 150.004 135.697C150.163 135.697 150.302 135.697 150.43 135.697C150.43 135.549 150.418 135.386 150.39 135.211C150.362 135.036 150.322 134.857 150.271 134.682C150.219 134.503 150.155 134.331 150.076 134.164C150 133.997 149.909 133.849 149.814 133.721C149.714 133.592 149.607 133.491 149.488 133.413C149.365 133.339 149.234 133.301 149.099 133.301Z" fill="#717171"/>
<path d="M153.792 133.522C153.843 133.693 153.903 133.884 153.967 134.102C154.03 134.32 154.094 134.541 154.153 134.771C154.213 135 154.261 135.238 154.3 135.475C154.34 135.712 154.36 135.942 154.36 136.16C154.36 136.432 154.32 136.701 154.241 136.957C154.161 137.218 154.054 137.467 153.915 137.704C153.776 137.942 153.613 138.171 153.422 138.389C153.231 138.607 153.021 138.813 152.798 139.008C152.576 139.202 152.333 139.381 152.083 139.548C151.829 139.712 151.575 139.863 151.312 140L150.979 139.311C151.316 139.136 151.642 138.93 151.96 138.704C152.274 138.475 152.556 138.226 152.798 137.961C153.045 137.693 153.239 137.409 153.386 137.105C153.533 136.802 153.609 136.49 153.609 136.164C153.609 135.985 153.593 135.798 153.557 135.596C153.522 135.397 153.478 135.191 153.422 134.981C153.367 134.775 153.307 134.565 153.243 134.359C153.18 134.152 153.116 133.95 153.061 133.756L153.792 133.522Z" fill="#717171"/>
<path d="M163.943 132.546C164.062 132.546 164.173 132.554 164.285 132.569C164.392 132.585 164.491 132.604 164.583 132.624C164.674 132.647 164.753 132.67 164.825 132.694C164.897 132.721 164.952 132.74 165 132.756C164.968 132.826 164.936 132.888 164.908 132.947C164.881 133.005 164.853 133.063 164.825 133.122C164.797 133.176 164.773 133.235 164.746 133.293C164.718 133.351 164.69 133.413 164.658 133.483C164.591 133.456 164.495 133.429 164.372 133.402C164.249 133.375 164.114 133.359 163.967 133.359C163.947 133.359 163.927 133.359 163.907 133.359C163.744 133.359 163.577 133.386 163.414 133.437C163.252 133.491 163.089 133.569 162.934 133.67C162.779 133.775 162.632 133.896 162.501 134.032C162.369 134.168 162.254 134.312 162.159 134.468C162.063 134.619 161.992 134.779 161.936 134.935C161.881 135.094 161.857 135.246 161.857 135.39C161.857 135.569 161.897 135.717 161.972 135.829C162.048 135.942 162.147 136.036 162.27 136.109C162.389 136.18 162.524 136.238 162.667 136.281C162.814 136.323 162.954 136.358 163.093 136.39C163.271 136.436 163.442 136.483 163.617 136.534C163.788 136.584 163.943 136.654 164.074 136.74C164.205 136.829 164.312 136.938 164.396 137.074C164.479 137.21 164.519 137.386 164.519 137.6C164.519 137.915 164.459 138.195 164.336 138.432C164.213 138.673 164.05 138.879 163.848 139.055C163.645 139.23 163.407 139.377 163.14 139.494C162.874 139.611 162.596 139.704 162.306 139.774C162.016 139.844 161.722 139.895 161.428 139.926C161.134 139.957 160.856 139.973 160.597 139.973C160.117 139.973 159.675 139.914 159.27 139.794C158.865 139.673 158.511 139.494 158.217 139.253C157.919 139.012 157.685 138.712 157.518 138.354C157.351 137.996 157.268 137.576 157.268 137.098C157.268 136.942 157.28 136.783 157.295 136.619C157.319 136.432 157.355 136.238 157.395 136.039C157.434 135.841 157.478 135.643 157.522 135.448C157.566 135.254 157.613 135.067 157.661 134.884C157.709 134.705 157.756 134.538 157.8 134.386C157.844 134.234 157.883 134.102 157.919 133.993C157.955 133.88 157.983 133.795 158.003 133.736C158.13 133.783 158.257 133.83 158.38 133.876C158.503 133.923 158.623 133.966 158.742 134.009C158.674 134.219 158.607 134.437 158.543 134.666C158.479 134.892 158.416 135.121 158.36 135.355C158.301 135.588 158.249 135.818 158.205 136.047C158.158 136.277 158.118 136.499 158.086 136.713C158.078 136.767 158.074 136.829 158.07 136.895C158.066 136.961 158.062 137.028 158.062 137.098C158.062 137.452 158.126 137.755 158.257 138.016C158.384 138.276 158.563 138.49 158.789 138.658C159.016 138.829 159.282 138.953 159.592 139.035C159.902 139.117 160.236 139.16 160.601 139.16C161.074 139.16 161.499 139.121 161.881 139.039C162.262 138.961 162.584 138.856 162.854 138.724C163.124 138.592 163.335 138.444 163.49 138.276C163.641 138.109 163.728 137.934 163.744 137.759C163.744 137.747 163.744 137.74 163.744 137.732C163.744 137.662 163.72 137.6 163.673 137.549C163.625 137.494 163.558 137.444 163.47 137.401C163.383 137.354 163.283 137.316 163.176 137.281C163.065 137.245 162.958 137.214 162.842 137.183C162.572 137.109 162.33 137.032 162.119 136.946C161.909 136.86 161.726 136.755 161.579 136.631C161.432 136.506 161.316 136.351 161.241 136.168C161.166 135.985 161.126 135.755 161.126 135.487C161.126 135.226 161.162 134.973 161.237 134.728C161.313 134.479 161.412 134.25 161.543 134.028C161.674 133.81 161.829 133.608 162.008 133.425C162.187 133.242 162.381 133.087 162.592 132.954C162.803 132.822 163.021 132.721 163.252 132.647C163.47 132.581 163.705 132.546 163.943 132.546Z" fill="#717171"/>
<path d="M167.753 133.522C167.804 133.693 167.864 133.884 167.927 134.102C167.991 134.32 168.055 134.541 168.114 134.771C168.174 135 168.222 135.238 168.261 135.475C168.301 135.712 168.321 135.942 168.321 136.16C168.321 136.432 168.281 136.701 168.202 136.957C168.122 137.218 168.015 137.467 167.876 137.704C167.737 137.942 167.574 138.171 167.383 138.389C167.192 138.607 166.982 138.813 166.759 139.008C166.537 139.202 166.294 139.381 166.044 139.548C165.79 139.712 165.535 139.863 165.273 140L164.939 139.311C165.277 139.136 165.603 138.93 165.921 138.704C166.235 138.475 166.517 138.226 166.759 137.961C167.006 137.693 167.2 137.409 167.347 137.105C167.494 136.802 167.57 136.49 167.57 136.164C167.57 135.985 167.554 135.798 167.518 135.596C167.482 135.397 167.439 135.191 167.383 134.981C167.327 134.775 167.268 134.565 167.204 134.359C167.141 134.152 167.077 133.95 167.022 133.756L167.753 133.522Z" fill="#717171"/>
<path d="M169.152 139.194C169.641 139.086 170.082 138.934 170.475 138.739C170.869 138.545 171.207 138.327 171.489 138.086C171.771 137.845 171.993 137.588 172.16 137.312C172.327 137.039 172.426 136.771 172.466 136.502C172.359 136.506 172.256 136.506 172.152 136.506C172.001 136.506 171.826 136.502 171.632 136.495C171.437 136.487 171.23 136.463 171.012 136.425C170.793 136.39 170.599 136.331 170.42 136.257C170.241 136.183 170.086 136.082 169.959 135.958C169.832 135.829 169.732 135.674 169.661 135.491C169.589 135.308 169.554 135.086 169.554 134.829C169.558 134.674 169.574 134.507 169.609 134.328C169.641 134.153 169.693 133.977 169.752 133.806C169.816 133.635 169.891 133.472 169.983 133.316C170.074 133.16 170.177 133.024 170.297 132.908C170.416 132.791 170.547 132.698 170.694 132.627C170.841 132.557 171 132.522 171.171 132.522C171.409 132.522 171.624 132.577 171.819 132.682C172.013 132.787 172.184 132.931 172.339 133.11C172.49 133.289 172.625 133.495 172.736 133.725C172.848 133.958 172.943 134.199 173.015 134.448C173.09 134.701 173.142 134.954 173.177 135.207C173.213 135.46 173.229 135.697 173.229 135.919C173.229 136.292 173.181 136.638 173.082 136.969C172.983 137.3 172.848 137.603 172.673 137.883C172.498 138.164 172.291 138.42 172.049 138.646C171.807 138.875 171.54 139.078 171.25 139.253C170.96 139.428 170.654 139.576 170.328 139.692C170.003 139.809 169.669 139.895 169.327 139.953L169.152 139.194ZM171.167 133.301C171.048 133.301 170.928 133.347 170.813 133.448C170.698 133.546 170.595 133.674 170.503 133.822C170.412 133.97 170.336 134.137 170.281 134.316C170.225 134.495 170.197 134.662 170.197 134.818C170.213 134.977 170.265 135.11 170.348 135.218C170.432 135.324 170.539 135.409 170.666 135.475C170.793 135.541 170.94 135.588 171.099 135.619C171.258 135.65 171.421 135.67 171.588 135.681C171.755 135.693 171.918 135.697 172.073 135.697C172.232 135.697 172.371 135.697 172.498 135.697C172.498 135.549 172.486 135.386 172.458 135.211C172.43 135.036 172.391 134.857 172.339 134.682C172.287 134.503 172.224 134.331 172.144 134.164C172.069 133.997 171.977 133.849 171.882 133.721C171.783 133.592 171.675 133.491 171.556 133.413C171.433 133.339 171.306 133.301 171.167 133.301Z" fill="#717171"/>
<path d="M176.551 136.506C176.257 136.506 175.995 136.475 175.765 136.409C175.534 136.347 175.336 136.242 175.177 136.102C175.014 135.962 174.891 135.779 174.807 135.553C174.72 135.328 174.68 135.055 174.68 134.732C174.68 134.487 174.68 134.219 174.684 133.919C174.684 133.62 174.688 133.309 174.688 132.986C174.688 132.663 174.684 132.336 174.68 132.005C174.676 131.675 174.668 131.352 174.66 131.037C174.648 130.721 174.636 130.426 174.616 130.146C174.597 129.866 174.573 129.617 174.545 129.395L175.3 129.259C175.328 129.434 175.352 129.64 175.371 129.873C175.391 130.111 175.407 130.364 175.419 130.636C175.431 130.908 175.439 131.192 175.447 131.488C175.451 131.784 175.455 132.071 175.455 132.355C175.455 132.76 175.455 133.149 175.459 133.523C175.459 133.647 175.459 133.775 175.459 133.904C175.459 134.153 175.459 134.406 175.455 134.655C175.455 134.869 175.471 135.044 175.506 135.184C175.538 135.324 175.598 135.433 175.681 135.518C175.765 135.6 175.872 135.662 176.007 135.693C176.142 135.728 176.313 135.744 176.52 135.744H176.659V136.514H176.551V136.506Z" fill="#717171"/>
<path d="M180.052 135.736V136.506H179.957C179.647 136.506 179.385 136.444 179.17 136.32C178.956 136.199 178.773 136.04 178.626 135.845C178.403 136.071 178.133 136.234 177.811 136.343C177.49 136.452 177.1 136.506 176.639 136.506H176.46V135.736H176.639C177.211 135.736 177.629 135.627 177.891 135.413C178.153 135.199 178.284 134.88 178.284 134.452C178.284 134.277 178.272 134.094 178.248 133.912C178.225 133.729 178.181 133.519 178.117 133.285C178.252 133.25 178.376 133.215 178.487 133.18C178.598 133.145 178.717 133.11 178.841 133.075C178.868 133.176 178.888 133.274 178.908 133.375C178.928 133.476 178.944 133.581 178.96 133.69C178.976 133.799 178.988 133.919 178.999 134.052C179.011 134.184 179.023 134.332 179.039 134.491C179.047 134.624 179.067 134.764 179.099 134.908C179.127 135.055 179.174 135.188 179.242 135.312C179.309 135.433 179.401 135.538 179.516 135.616C179.631 135.697 179.782 135.736 179.965 135.736H180.052ZM178.697 131.243L177.986 131.966L177.275 131.243L177.986 130.519L178.697 131.243Z" fill="#717171"/>
<path d="M179.952 135.736C180.401 135.736 180.799 135.721 181.144 135.689C181.486 135.658 181.784 135.604 182.038 135.53C182.293 135.456 182.507 135.359 182.686 135.238C182.865 135.118 183.016 134.966 183.139 134.791C182.929 134.81 182.726 134.822 182.535 134.822C182.329 134.822 182.094 134.806 181.832 134.771C181.57 134.736 181.323 134.651 181.097 134.503C180.87 134.359 180.711 134.157 180.612 133.896C180.552 133.733 180.521 133.538 180.521 133.312C180.521 133.188 180.533 133.052 180.548 132.908C180.576 132.709 180.632 132.507 180.711 132.301C180.791 132.091 180.894 131.904 181.021 131.733C181.148 131.566 181.295 131.426 181.462 131.317C181.629 131.208 181.812 131.153 182.015 131.153C182.217 131.153 182.404 131.2 182.579 131.285C182.754 131.375 182.909 131.496 183.052 131.647C183.191 131.799 183.314 131.974 183.421 132.169C183.529 132.367 183.616 132.573 183.687 132.791C183.759 133.009 183.815 133.227 183.85 133.452C183.886 133.678 183.906 133.888 183.906 134.083C183.906 134.409 183.858 134.693 183.759 134.939C183.664 135.188 183.529 135.398 183.358 135.577C183.187 135.756 182.98 135.903 182.738 136.024C182.499 136.145 182.233 136.238 181.947 136.308C181.661 136.378 181.351 136.429 181.021 136.46C180.691 136.491 180.358 136.506 180.012 136.506H179.849V135.736H179.952ZM182.019 131.931C181.963 131.931 181.895 131.955 181.812 131.997C181.729 132.044 181.645 132.106 181.562 132.196C181.478 132.285 181.399 132.398 181.327 132.534C181.256 132.67 181.204 132.83 181.172 133.009C181.156 133.098 181.148 133.18 181.148 133.25C181.148 133.382 181.18 133.503 181.248 133.612C181.315 133.721 181.423 133.81 181.578 133.873C181.729 133.935 181.903 133.974 182.098 133.985C182.293 133.997 182.484 134.001 182.666 134.001C182.734 134.001 182.813 134.001 182.901 133.997C182.988 133.993 183.087 133.989 183.195 133.982C183.191 133.865 183.175 133.736 183.147 133.589C183.119 133.445 183.08 133.293 183.032 133.141C182.98 132.989 182.921 132.842 182.853 132.694C182.782 132.546 182.706 132.418 182.619 132.301C182.531 132.188 182.44 132.095 182.34 132.025C182.237 131.966 182.134 131.931 182.019 131.931ZM182.69 129.301L181.979 130.025L181.268 129.301L181.979 128.578L182.69 129.301Z" fill="#717171"/>
<path d="M0.0917969 136.421V129.71H3.98575V130.379H1.00966V132.581H3.77516V133.254H1.00966V136.421H0.0917969Z" fill="#717171"/>
<path d="M6.98528 129.71H8.20115L10.5335 136.421H9.52032L8.86868 134.487H6.24622L5.63829 136.421H4.62109L6.98528 129.71ZM7.58526 130.247H7.56143L6.46476 133.818H8.65412L7.58526 130.247Z" fill="#717171"/>
<path d="M13.2391 136.421H12.3213V129.71H14.455C16.1914 129.71 17.296 130.075 17.2444 131.624C17.2126 132.41 16.6126 132.974 15.651 133.083V133.102C16.7238 133.184 16.9901 133.46 17.1212 134.355C17.153 134.857 17.2086 135.347 17.296 135.849C17.3278 135.973 17.3953 136.269 17.6179 136.269V136.421H16.545C16.3464 135.993 16.2589 135.16 16.2589 134.713C16.2589 134.04 15.9292 133.468 14.8444 133.468H13.2391V136.421ZM13.2391 132.795H14.6894C15.1225 132.787 16.3146 132.733 16.2947 131.562C16.2709 130.406 15.1543 130.379 14.5345 130.379H13.2391V132.795Z" fill="#717171"/>
<path d="M19.7559 136.421V129.71H22.0326C24.6193 129.71 24.9769 131.41 24.9094 133.067C24.8418 134.705 24.4445 136.425 22.1995 136.425H19.7559V136.421ZM20.6737 135.748H22.1439C23.4948 135.748 24.0472 134.935 23.9597 132.927C23.8922 131.398 23.6299 130.375 22.1439 130.375H20.6737V135.748Z" fill="#717171"/>
<path d="M28.8193 129.71H30.0352L32.3676 136.421H31.3504L30.6988 134.487H28.0763L27.4684 136.421H26.4512L28.8193 129.71ZM29.4153 130.247H29.3915L28.2948 133.818H30.4842L29.4153 130.247Z" fill="#717171"/>
<path d="M42.8378 129.71H44.455V136.421H43.5371V130.889C43.5371 130.601 43.5609 130.324 43.5371 130.04H43.5133C43.4139 130.433 43.3345 130.686 43.259 130.943L41.5226 136.421H40.4259L38.6895 130.865C38.6101 130.632 38.5465 130.41 38.4472 130.04H38.4233C38.4233 130.328 38.4472 130.62 38.4472 130.908V136.421H37.5293V129.71H39.1544L40.7796 134.946C40.867 135.234 40.9107 135.51 40.9544 135.938H40.9782C41.0339 135.6 41.0895 135.265 41.1888 134.935L42.8378 129.71Z" fill="#717171"/>
<path d="M46.8354 136.421V129.71H50.9837V130.379H47.7533V132.596H50.785V133.269H47.7533V135.748H51.0036V136.421H46.8354Z" fill="#717171"/>
<path d="M53.1729 136.421V129.71H55.4496C58.0363 129.71 58.3939 131.41 58.3264 133.067C58.2588 134.705 57.8615 136.425 55.6165 136.425H53.1729V136.421ZM54.0907 135.748H55.5609C56.9118 135.748 57.4641 134.935 57.3767 132.927C57.3092 131.398 57.0469 130.375 55.5609 130.375H54.0907V135.748Z" fill="#717171"/>
<path d="M60.8301 136.421V129.71H61.7479V136.421H60.8301Z" fill="#717171"/>
<path d="M68.1887 131.721C68.1649 130.923 67.847 130.243 66.6947 130.243C65.1013 130.243 65.0775 132.079 65.0775 132.962C65.0338 133.876 65.01 135.907 66.6947 135.907C67.7914 135.907 68.0218 135.183 68.1331 134.448C68.1569 134.296 68.1649 134.145 68.1887 133.993H69.1066C69.0827 134.129 69.0827 134.269 69.0629 134.405C69.0072 134.95 68.9754 135.362 68.5781 135.829C68.145 136.312 67.5728 136.58 66.7742 136.58C64.2192 136.58 64.1318 134.584 64.1318 132.981C64.1318 131.468 64.41 129.573 66.7662 129.573C68.3357 129.573 69.1542 130.523 69.1105 131.721H68.1887Z" fill="#717171"/>
<path d="M72.9004 129.71H74.1163L76.4486 136.421H75.4315L74.7798 134.487H72.1574L71.5494 136.421H70.5322L72.9004 129.71ZM73.5004 130.247H73.4765L72.3799 133.818H74.5692L73.5004 130.247Z" fill="#717171"/>
<path d="M78.2017 136.421V129.71H79.1195V135.751H82.5049V136.425H78.2017V136.421Z" fill="#717171"/>
<path d="M85.7305 136.421V135.526H86.7357V136.421H85.7305Z" fill="#717171"/>
<path d="M177.024 91.6769H149.261C145.526 91.6769 142.499 94.6414 142.499 98.2983V113.953H101.33C101.219 113.907 101.123 113.868 101.012 113.821L90.2561 103.041C89.0204 101.804 88.329 100.142 88.329 98.415V91.813H82.0073V113.377C82.0073 113.619 81.8087 113.813 81.5623 113.813H55.8384V120.003H81.5623C85.2973 120.003 88.3251 117.038 88.3251 113.381V109.969L96.4865 118.151C97.758 119.427 99.5023 120.143 101.322 120.143H177.016C180.751 120.143 183.779 117.178 183.779 113.521V98.3022C183.786 94.6414 180.759 91.6769 177.024 91.6769ZM177.465 113.521C177.465 113.763 177.266 113.957 177.02 113.957H148.816V98.3022C148.816 98.061 149.015 97.8665 149.261 97.8665H177.02C177.266 97.8665 177.465 98.061 177.465 98.3022V113.521Z" fill="#60547B"/>
<path d="M44.0067 120.143H12.6445V113.953H44.0107C44.2571 113.953 44.4557 113.759 44.4557 113.518V98.2985C44.4557 98.0573 44.2571 97.8628 44.0107 97.8628H12.6445V91.6732H44.0107C47.7418 91.6732 50.7735 94.6455 50.7735 98.2985V113.518C50.7735 117.171 47.7378 120.143 44.0067 120.143Z" fill="#60547B"/>
<path d="M6.32171 86.0946H0V120.143H6.32171V86.0946Z" fill="#60547B"/>
<path d="M166.797 88.904V85.3287H159.49V88.904H166.797Z" fill="#60547B"/>
<path d="M128.651 7.07689C122.814 1.36191 114.787 -0.890631 107.222 0.31539C106.987 0.354293 106.753 0.393197 106.515 0.439882C106.384 0.459334 106.256 0.486568 106.125 0.517691C105.966 0.548815 105.803 0.583827 105.644 0.622731C105.585 0.634402 105.529 0.646072 105.478 0.661634C105.255 0.716099 105.025 0.770565 104.802 0.828921C104.595 0.879496 104.385 0.937852 104.182 0.996208C103.992 1.05456 103.801 1.11292 103.61 1.16739C103.423 1.22963 103.233 1.29188 103.046 1.35413C102.859 1.42026 102.668 1.4864 102.482 1.55253C102.124 1.6887 101.77 1.82486 101.421 1.97659C100.721 2.27226 100.042 2.59905 99.3744 2.95696C99.0287 3.13981 98.691 3.33433 98.3572 3.53274V3.53663C98.2102 3.62222 98.0711 3.70781 97.9241 3.79729C97.6778 3.9529 97.4314 4.1163 97.1851 4.27581C97.1851 4.2797 97.1851 4.2797 97.1811 4.2797C96.9387 4.44309 96.6963 4.61816 96.4579 4.78934C96.2831 4.92161 96.1043 5.04999 95.9295 5.19005C95.9175 5.19783 95.9056 5.20561 95.8937 5.21728C95.7626 5.31843 95.6394 5.41958 95.5083 5.52462C95.4566 5.55963 95.405 5.60243 95.3573 5.64912C95.2182 5.76194 95.0831 5.87475 94.948 5.99147C94.809 6.10429 94.6778 6.221 94.5427 6.34549C94.4553 6.4233 94.3719 6.49333 94.2884 6.57502C94.1096 6.73453 93.9308 6.90571 93.756 7.07689L91.5905 9.19715L89.8899 7.53206L89.4329 7.08467C84.6171 2.36952 78.3034 0.0119397 71.9896 0.0119397C65.6758 0.0119397 59.3621 2.36952 54.5463 7.08467C48.7093 12.7997 46.4087 20.6582 47.6405 28.0655C47.6802 28.2951 47.72 28.5246 47.7676 28.758C47.7875 28.8864 47.8153 29.0109 47.8471 29.1393C47.8789 29.2949 47.9146 29.4544 47.9544 29.61C47.9663 29.6684 47.9782 29.7228 47.9941 29.7734C48.0497 29.9913 48.1054 30.2169 48.165 30.4348C48.2166 30.6371 48.2762 30.8433 48.3358 31.0417C48.3954 31.2284 48.455 31.4152 48.5107 31.6019C48.5742 31.7847 48.6378 31.9715 48.7014 32.1543C48.7689 32.3372 48.8365 32.5239 48.904 32.7068C49.0431 33.0569 49.1822 33.4032 49.3371 33.7455C49.6391 34.4302 49.9729 35.0955 50.3384 35.7491C50.5252 36.0875 50.7239 36.4182 50.9265 36.745H50.9305C51.0179 36.8889 51.1053 37.0251 51.1967 37.169C51.3556 37.4102 51.5225 37.6515 51.6854 37.8927C51.6894 37.8927 51.6894 37.8927 51.6894 37.8965C51.8563 38.1339 52.0351 38.3712 52.2099 38.6046C52.345 38.7758 52.4761 38.9508 52.6192 39.122C52.6271 39.1337 52.6351 39.1454 52.647 39.157C52.7503 39.2854 52.8536 39.406 52.9609 39.5344C52.9967 39.585 53.0404 39.6356 53.088 39.6822C53.2033 39.8184 53.3185 39.9507 53.4377 40.0829C53.5529 40.2191 53.6721 40.3475 53.7993 40.4798C53.8787 40.5654 53.9503 40.6471 54.0337 40.7288C54.1966 40.9038 54.3715 41.0789 54.5463 41.2501L71.2585 57.613C71.5366 57.8659 71.8028 58.1266 72.0611 58.3989C74.4491 60.8848 76.122 64.0361 76.7617 67.5335C76.865 68.1054 77.3736 68.5256 77.9656 68.5256C78.3709 68.5256 78.7563 68.3311 78.9788 68.0004C79.3643 67.4285 79.7219 66.8372 80.0517 66.2264C81.6688 63.223 82.5867 59.8033 82.5867 56.1697C82.5867 52.7267 81.7642 49.4666 80.294 46.576C79.4557 44.9265 78.3153 43.4404 76.9842 42.141L62.2547 27.7193C59.2031 25.1011 57.28 21.2612 57.28 16.974C57.28 11.3719 60.5779 6.52056 65.3739 4.19022C65.6003 4.07351 65.8268 3.97236 66.0652 3.8751C66.1526 3.8323 66.2361 3.79729 66.3275 3.76227C66.4745 3.70392 66.6175 3.64556 66.7646 3.59499C66.8758 3.55219 66.9871 3.5094 67.0983 3.47439C67.1857 3.44326 67.2692 3.41603 67.3566 3.38491C67.5354 3.32655 67.7221 3.27209 67.9089 3.2254C68.0122 3.19428 68.1155 3.16316 68.2228 3.13981C69.4347 2.82469 70.6823 2.67297 71.926 2.67297C75.665 2.67297 79.4 4.06962 82.249 6.86291L88.1137 12.6051L79.4874 21.0512C79.2292 21.3235 78.9629 21.5841 78.6848 21.837C76.1458 24.1751 72.9273 25.813 69.3552 26.4394C68.7711 26.5405 68.342 27.0385 68.342 27.6181C68.342 28.015 68.5407 28.3923 68.8784 28.6102C69.4625 28.9876 70.0704 29.3377 70.6903 29.6606C73.7578 31.244 77.2504 32.1427 80.9616 32.1427C84.4781 32.1427 87.8078 31.3374 90.76 29.8979C92.4448 29.077 93.9626 27.9605 95.2937 26.6572L107.58 14.6281C110.254 11.6403 114.175 9.75736 118.554 9.75736C124.276 9.75736 129.231 12.9864 131.611 17.6821C131.73 17.9038 131.833 18.1256 131.933 18.359C131.976 18.4446 132.012 18.5263 132.048 18.6158C132.107 18.7597 132.167 18.8998 132.219 19.0437C132.262 19.1527 132.306 19.2616 132.342 19.3705C132.374 19.4561 132.401 19.5378 132.433 19.6234C132.493 19.7985 132.548 19.9813 132.596 20.1642C132.628 20.2653 132.66 20.3665 132.684 20.4715C133.005 21.6581 133.16 22.8796 133.16 24.0973C133.16 27.7582 131.734 31.4152 128.881 34.2046L124.717 38.2817C123.791 39.1882 123.791 40.6587 124.717 41.5691L124.84 41.6897C125.766 42.5961 127.268 42.5961 128.198 41.6897L128.655 41.2423C133.47 36.5271 135.878 30.3453 135.878 24.1635C135.874 17.9739 133.466 11.792 128.651 7.07689Z" fill="#23B099"/>
</svg>
